<svg xmlns="http://www.w3.org/2000/svg" viewBox="0 0 300 420" role="img" aria-label="橘子蘋果教學據點分布：全台 12 縣市"><path d="M255,61L255,62L253,62L252,61L254,60L255,61Z M256,44L251,46L249,50L247,50L247,52L243,56L241,62L240,71L240,75L242,77L242,84L244,89L247,91L246,91L246,92L246,93L246,93L245,94L246,99L242,100L242,101L242,103L244,105L240,107L238,111L234,122L235,125L225,123L225,122L224,122L221,120L221,121L219,118L218,119L219,121L219,123L218,122L218,123L215,123L216,126L212,125L210,122L204,122L199,119L198,117L194,117L191,119L190,116L187,116L186,115L186,111L185,110L187,105L189,104L191,102L192,102L194,99L193,96L195,94L194,92L195,90L197,90L200,82L207,81L209,80L209,78L213,77L213,76L215,75L214,72L215,70L215,68L218,67L218,66L225,65L226,62L230,60L232,60L235,59L237,55L241,54L244,51L242,49L243,47L247,47L253,44L256,44Z" fill="#EDEDED" stroke="#fff" stroke-width="1"/><path d="M90,138L95,140L97,146L100,149L107,151L109,155L109,159L111,160L111,159L114,161L114,162L110,162L110,164L111,165L111,168L110,169L109,168L110,171L109,171L110,172L109,174L110,175L108,179L109,180L108,182L110,183L108,183L110,183L110,184L110,184L111,186L114,185L115,187L111,189L100,187L96,187L88,183L74,185L68,183L64,179L66,177L68,176L71,169L74,166L75,163L77,161L77,156L80,153L82,153L82,151L82,152L86,142L89,140L90,138Z" fill="#EDEDED" stroke="#fff" stroke-width="1"/><path d="M110,189L115,187L114,185L111,186L110,184L110,184L110,183L108,183L110,183L109,182L108,182L109,180L108,179L110,175L109,174L110,172L109,171L110,171L109,168L110,169L111,168L111,165L110,164L110,162L114,162L114,161L118,162L120,162L122,163L125,162L127,159L129,155L131,154L131,151L133,148L136,150L136,153L138,151L138,149L141,150L144,148L149,149L152,144L153,144L153,145L154,144L156,144L161,140L165,139L168,136L170,138L174,136L176,137L179,134L181,135L183,135L186,135L188,138L188,139L181,142L181,144L181,144L181,147L186,149L186,150L185,152L185,153L181,157L181,158L178,164L179,166L180,167L180,169L180,174L178,175L179,177L176,182L176,184L175,187L175,189L172,190L173,192L175,193L175,195L176,196L176,203L174,208L172,212L171,211L169,213L167,213L166,214L167,215L166,216L166,220L165,221L163,220L160,220L159,221L157,221L154,226L156,228L155,229L151,231L151,228L148,227L144,227L140,226L137,226L137,227L132,226L131,225L130,221L129,219L131,213L130,211L127,211L123,209L120,210L119,208L118,209L116,209L115,210L113,210L111,207L110,209L109,207L111,201L110,196L111,195L112,195L112,192L110,189Z" fill="#EDEDED" stroke="#fff" stroke-width="1"/><path d="M49,220L50,222L49,222L48,223L48,223L47,224L46,224L47,225L47,225L46,225L46,225L46,224L45,226L45,224L45,225L43,226L43,228L41,228L42,227L41,228L42,231L40,227L40,226L49,220Z M51,218L52,220L51,220L51,220L50,220L51,218Z M54,215L54,217L54,216L52,217L52,218L51,218L52,216L54,215Z M64,179L68,183L74,185L88,183L96,187L100,187L110,189L112,192L112,195L111,195L110,196L111,201L109,207L109,208L112,208L111,209L113,210L116,209L118,209L119,208L120,209L120,211L120,211L121,215L116,214L114,215L114,214L111,214L111,214L111,212L104,213L100,212L98,211L95,207L89,207L87,209L85,208L84,207L79,212L77,212L76,214L74,214L74,215L72,216L72,217L70,218L70,219L68,218L67,218L67,221L66,222L60,222L56,221L56,219L55,216L56,211L55,209L55,207L54,209L53,207L58,194L59,192L57,189L59,187L59,186L63,183L62,181L64,179Z" fill="#EDEDED" stroke="#fff" stroke-width="1"/><path d="M205,392L212,392L213,395L212,395L212,397L216,399L215,401L212,401L211,399L209,399L206,396L206,394L205,392L205,392Z M204,321L206,321L206,324L205,325L206,326L205,326L202,325L202,323L201,322L204,321Z M135,302L135,300L134,299L135,298L132,297L131,294L131,293L130,291L130,287L133,282L134,282L135,279L137,278L135,276L138,270L137,266L136,265L138,264L139,262L140,261L139,259L140,254L143,254L147,249L148,249L154,247L156,249L158,255L164,256L166,259L169,258L171,258L173,266L178,268L180,271L182,270L184,270L186,265L185,263L185,262L187,262L188,257L189,256L189,253L191,251L191,247L196,240L194,239L194,237L196,233L199,230L202,230L203,231L204,231L202,237L200,245L199,246L197,248L195,255L196,256L193,258L195,263L194,267L195,268L196,268L193,269L192,271L190,271L189,272L185,284L181,289L180,293L176,299L173,299L171,301L170,303L172,307L170,309L169,312L163,317L159,319L153,324L151,332L147,336L138,362L138,372L137,374L135,374L134,373L132,373L129,370L128,371L128,368L125,366L127,364L127,362L122,358L123,356L123,354L127,352L125,348L122,347L122,345L124,343L121,336L123,329L126,323L126,319L129,320L132,319L133,317L137,317L138,314L138,311L139,310L139,307L138,305L135,305L135,302Z" fill="#EDEDED" stroke="#fff" stroke-width="1"/><path d="M199,119L204,122L210,122L212,125L216,126L215,123L218,123L218,122L219,123L219,121L218,119L219,118L221,121L221,120L224,122L225,122L225,123L235,125L232,129L231,132L223,140L223,147L218,152L218,157L221,162L219,167L218,166L216,168L217,171L215,180L213,187L213,192L210,197L211,199L208,208L208,214L205,221L206,225L204,231L203,231L202,230L199,230L196,233L194,237L194,239L196,240L191,247L191,251L189,253L189,256L188,257L187,262L185,262L185,263L186,265L185,269L180,271L178,268L177,267L173,266L171,258L169,258L166,259L164,256L158,255L156,248L154,247L153,247L155,246L155,244L152,241L151,241L148,240L148,239L151,237L150,236L153,235L153,232L151,231L156,228L154,226L157,221L159,221L160,220L163,220L165,221L166,220L166,216L167,215L166,214L167,213L169,213L171,211L173,211L176,204L176,198L175,195L175,193L173,192L172,190L175,189L175,187L176,184L176,182L179,177L178,175L180,174L180,169L180,167L179,166L178,164L181,158L181,157L185,153L185,152L186,150L181,147L181,142L188,139L187,136L188,134L192,132L192,129L193,128L194,126L196,126L198,124L198,121L199,119Z" fill="#EDEDED" stroke="#fff" stroke-width="1"/><path d="M238,26L237,29L235,28L232,29L233,30L233,33L235,34L234,35L232,36L225,34L224,33L224,32L224,32L222,31L221,29L220,27L219,25L224,24L228,21L228,22L232,23L234,23L235,23L235,24L235,24L238,24L238,26Z" fill="#FFA300" stroke="#fff" stroke-width="1"/><path d="M212,19L214,19L213,22L215,23L214,24L216,27L215,29L219,31L219,32L217,35L218,36L218,37L221,39L223,39L223,40L219,39L215,41L216,45L217,46L215,47L211,47L210,44L210,44L209,43L208,44L208,41L207,40L206,40L204,41L203,38L205,36L205,33L203,31L200,29L200,28L205,21L207,22L207,21L209,20L211,17L212,19Z" fill="#FFA300" stroke="#fff" stroke-width="1"/><path d="M256,44L253,44L247,47L243,47L242,49L244,51L241,54L237,55L235,59L232,60L230,60L226,62L225,65L218,66L218,67L215,68L215,70L214,72L215,75L213,76L213,77L209,78L209,80L202,82L202,79L199,78L197,75L196,71L199,68L198,67L198,65L194,61L191,63L187,61L189,60L188,59L189,58L187,55L185,55L186,53L185,53L187,51L185,51L184,50L186,49L185,46L187,45L190,45L192,44L192,43L194,43L193,41L195,40L193,37L194,37L193,36L194,36L192,36L193,35L189,35L188,34L188,33L187,33L188,32L182,30L181,28L182,27L188,27L193,25L193,22L194,23L196,21L194,20L194,19L196,19L199,12L202,11L203,10L206,8L206,7L207,8L208,7L209,6L210,7L213,6L218,9L219,11L219,13L220,14L221,14L221,15L223,17L224,18L227,16L225,19L228,21L224,24L219,25L220,27L222,31L224,32L224,32L224,33L225,34L232,36L234,35L235,34L233,33L233,30L232,29L235,28L237,29L238,26L241,26L240,28L242,27L248,28L251,27L250,29L251,29L250,32L252,35L252,38L254,40L257,39L259,41L259,40L260,41L260,42L256,44Z M212,19L211,17L209,20L207,21L207,22L205,21L200,28L200,29L203,31L205,33L205,36L203,38L204,41L206,40L207,40L208,41L208,44L209,43L210,44L210,44L211,47L215,47L218,46L216,45L215,41L219,39L223,40L223,39L221,39L218,37L218,36L217,35L219,32L219,31L215,29L216,27L214,24L215,23L213,22L214,19L212,19Z" fill="#FFA300" stroke="#fff" stroke-width="1"/><path d="M185,110L186,111L186,115L187,116L190,116L191,119L197,117L199,119L198,121L198,124L196,126L194,126L193,128L192,129L192,132L188,134L187,136L183,135L181,135L179,134L176,137L174,136L170,138L168,136L165,139L161,140L156,144L154,144L153,145L153,144L152,144L149,149L144,148L141,150L138,149L138,151L136,153L136,150L133,148L131,151L131,154L129,155L127,159L125,162L122,163L120,162L116,162L111,159L111,160L109,159L109,155L107,151L100,149L97,146L95,140L90,138L92,136L93,132L95,131L97,125L101,121L108,110L116,119L120,121L124,124L129,125L131,128L133,128L140,128L141,127L141,123L143,122L150,123L152,126L155,127L158,124L160,125L162,123L163,123L165,120L168,120L171,115L173,115L173,117L175,117L178,110L178,111L179,112L183,111L185,110Z" fill="#00C4B3" stroke="#fff" stroke-width="1"/><path d="M112,256L112,257L110,260L110,261L106,266L102,273L93,281L93,282L91,282L91,284L90,285L89,286L86,293L82,292L79,296L76,296L76,295L75,295L71,294L70,294L71,295L68,295L68,295L66,294L65,293L64,294L61,292L59,293L59,289L57,287L57,286L55,283L50,279L46,278L44,275L43,275L44,270L46,268L48,261L50,252L50,247L52,246L53,242L59,246L60,248L61,248L61,247L63,248L66,244L69,242L69,242L69,241L71,241L72,238L74,238L75,236L77,237L78,235L85,233L86,235L88,233L92,235L93,237L94,236L95,236L93,237L93,239L95,239L96,240L95,242L99,243L99,244L97,246L97,250L98,252L97,254L98,255L103,257L105,254L107,256L109,255L112,256Z" fill="#FF6F61" stroke="#fff" stroke-width="1"/><path d="M202,82L200,82L199,83L199,85L196,90L195,90L193,92L191,92L189,89L190,87L188,86L189,83L187,83L187,81L185,79L183,79L184,76L182,75L184,72L183,71L178,69L178,67L177,67L176,66L174,67L174,65L172,66L172,65L166,61L167,59L167,57L163,57L162,56L162,55L160,55L156,54L156,50L155,49L151,49L149,50L148,50L151,45L152,41L155,37L162,34L176,28L176,28L181,28L182,30L188,32L187,33L188,33L188,34L189,35L192,35L192,36L194,36L193,36L194,37L193,37L195,40L193,41L194,43L192,43L192,44L190,45L187,45L185,46L186,49L184,50L185,51L187,51L185,53L186,53L185,55L186,55L189,57L188,59L189,60L187,61L189,61L191,63L194,61L198,65L198,67L199,68L196,71L197,75L199,78L202,79L202,82Z" fill="#FFA300" stroke="#fff" stroke-width="1"/><path d="M178,110L175,117L173,117L173,115L171,115L168,120L165,120L163,123L162,123L160,125L158,124L155,127L152,126L150,123L143,122L141,123L141,127L140,128L131,128L129,125L124,124L120,121L116,119L108,110L113,105L119,91L123,87L124,85L127,83L130,82L134,78L136,74L138,75L140,74L140,77L143,78L144,77L145,78L147,77L146,81L147,81L148,83L149,84L151,84L151,85L153,86L155,89L157,88L158,89L159,92L158,95L156,96L159,98L157,100L158,103L160,103L163,102L166,101L168,103L174,101L174,102L174,103L179,108L178,110Z" fill="#00C4B3" stroke="#fff" stroke-width="1"/><path d="M89,221L91,223L93,222L93,224L95,224L96,226L94,229L91,228L88,230L87,228L83,228L84,226L83,223L85,222L85,223L88,222L88,221L88,222L89,221Z" fill="#FF6F61" stroke="#fff" stroke-width="1"/><path d="M120,210L123,209L127,211L130,211L131,213L129,219L132,226L137,227L137,226L140,226L145,227L142,228L139,229L137,231L133,233L131,238L128,238L126,242L123,242L123,244L120,246L118,246L117,249L111,247L110,251L112,256L109,255L107,256L105,254L103,257L98,255L97,254L98,252L97,250L97,246L99,244L95,242L96,240L95,239L93,239L93,237L95,236L94,236L93,237L91,235L88,233L86,235L85,233L78,235L77,237L75,236L74,238L72,238L71,239L71,241L69,241L68,243L66,244L64,247L63,248L61,247L61,248L60,248L53,242L54,237L57,236L57,237L57,236L58,236L58,234L57,235L56,234L57,232L56,232L57,229L57,228L55,229L56,228L57,224L59,224L54,224L53,221L66,222L67,221L67,218L68,218L70,219L70,218L72,217L72,216L74,215L74,214L76,214L77,212L79,212L84,207L85,208L87,209L89,207L95,207L99,212L104,213L111,212L111,214L111,214L114,214L114,215L116,214L121,215L120,211L120,211L120,210Z M89,221L88,222L88,221L88,222L85,223L85,222L83,223L84,226L83,228L87,228L88,230L91,228L94,229L96,226L95,224L93,224L93,222L91,223L89,221Z" fill="#FF6F61" stroke="#fff" stroke-width="1"/><path d="M145,227L151,228L151,228L151,230L153,232L153,235L150,236L151,237L148,239L148,240L151,241L152,241L155,244L155,245L152,248L147,249L143,254L140,254L139,259L140,261L139,262L138,264L136,265L137,266L138,270L135,276L137,278L135,279L134,282L133,282L130,287L130,291L131,293L131,294L132,297L135,298L134,299L135,300L135,302L134,300L133,300L130,299L127,300L127,302L125,302L123,299L120,297L117,297L114,300L113,300L112,297L111,297L111,296L106,298L101,303L92,302L90,310L90,318L88,323L88,328L89,332L86,340L87,346L84,345L79,342L77,339L76,340L76,338L74,341L72,337L75,339L75,339L73,337L73,335L69,330L69,329L68,328L69,327L67,324L69,321L68,316L64,306L62,306L61,305L63,304L59,293L61,292L64,294L65,293L66,294L68,295L68,295L71,295L70,294L71,294L75,295L76,295L76,296L79,296L82,292L86,293L89,286L90,285L91,284L91,282L93,282L93,281L101,274L106,266L110,261L110,260L112,257L110,251L111,247L117,249L118,246L120,246L123,244L123,242L126,242L128,238L131,238L133,233L137,231L139,229L142,228L145,227Z" fill="#FF6F61" stroke="#fff" stroke-width="1"/><path d="M143,77L140,77L140,74L138,75L136,74L139,71L138,68L141,62L140,60L143,60L145,62L148,63L152,66L153,71L152,72L151,70L149,69L148,70L148,70L146,71L145,73L144,73L143,77Z" fill="#FFA300" stroke="#fff" stroke-width="1"/><path d="M194,92L195,94L193,96L194,99L192,102L191,102L189,104L187,105L183,111L178,111L179,108L174,103L174,102L174,101L168,103L166,101L163,102L160,103L158,103L157,100L159,98L156,96L158,95L159,92L158,89L157,88L155,89L153,86L151,85L151,84L149,84L148,83L147,81L146,81L147,77L145,78L143,77L144,73L145,73L146,71L148,70L149,69L151,70L152,72L153,72L153,71L152,67L153,67L150,64L145,63L142,60L148,50L149,50L151,49L155,49L156,50L156,54L160,55L162,55L162,56L163,57L167,57L167,59L166,61L172,65L172,66L174,65L174,67L176,66L177,67L178,67L178,69L183,71L184,72L182,75L184,76L183,79L185,79L187,81L187,83L189,83L188,86L190,87L189,89L190,91L192,92L194,92Z" fill="#FFA300" stroke="#fff" stroke-width="1"/><path d="M82,359L83,361L79,363L79,363L80,361L82,359Z M87,346L86,340L89,332L88,328L88,323L90,318L90,310L92,302L101,303L106,298L111,296L111,297L112,297L113,300L114,300L117,297L120,297L123,299L125,302L127,302L127,300L131,299L133,300L134,300L134,301L135,305L139,306L139,310L138,311L138,314L137,317L133,317L132,319L129,320L126,319L126,323L124,327L122,332L122,334L121,336L124,343L122,345L122,347L125,348L127,352L123,354L123,356L122,358L124,359L124,360L126,361L127,363L127,364L125,366L128,368L128,371L129,370L135,374L138,372L138,378L138,385L137,386L138,389L139,389L138,394L139,398L136,402L133,404L132,408L135,411L135,414L133,414L133,412L130,409L126,408L124,406L122,408L121,411L120,411L118,409L118,404L115,399L117,395L117,392L119,391L119,389L117,385L115,377L111,372L111,366L104,358L90,350L88,346L87,346Z" fill="#FF6F61" stroke="#fff" stroke-width="1"/></svg>